<svg xmlns="http://www.w3.org/2000/svg" version="1.1" xmlns:xlink="http://www.w3.org/1999/xlink" xmlns:svgjs="http://svgjs.dev/svgjs" width="1500" height="500" viewBox="0 0 1500 500"><g transform="matrix(1,0,0,1,-0.9090909090909918,0.9413162700573707)"><svg viewBox="0 0 396 132" data-background-color="#ffffff" preserveAspectRatio="xMidYMid meet" height="500" width="1500" xmlns="http://www.w3.org/2000/svg" xmlns:xlink="http://www.w3.org/1999/xlink"><g id="tight-bounds" transform="matrix(1,0,0,1,0.2400000000000091,-0.2485074952951436)"><svg viewBox="0 0 395.52 132.49701499059026" height="132.49701499059026" width="395.52"><g><svg viewBox="0 0 562.1202868974048 188.30719073513436" height="132.49701499059026" width="395.52"><g transform="matrix(1,0,0,1,166.60028689740474,26.0250893128876)"><svg viewBox="0 0 395.52 136.25701210935915" height="136.25701210935915" width="395.52"><g id="textblocktransform"><svg viewBox="0 0 395.52 136.25701210935915" height="136.25701210935915" width="395.52" id="textblock"><g><svg viewBox="0 0 395.52 68.14310850439884" height="68.14310850439884" width="395.52"><g transform="matrix(1,0,0,1,0,0)"><svg width="395.52" viewBox="2.5 -34.55 204.93 35.25" height="68.14310850439884" data-palette-color="#074e99"><g class="wordmark-text-0" data-fill-palette-color="primary" id="text-0"><path d="M24.35-34.55L24.35-9.7Q24.35-5.15 21.53-2.23 18.7 0.7 13.45 0.7L13.45 0.7Q8.1 0.7 5.3-2.18 2.5-5.05 2.5-9.7L2.5-9.7 2.5-34.55 8.85-34.55 8.85-10Q8.85-7.1 9.95-5.68 11.05-4.25 13.45-4.25L13.45-4.25Q15.8-4.25 16.9-5.68 18-7.1 18-10L18-10 18-34.55 24.35-34.55ZM29.85-34.55L36.2-34.55 36.2 0 29.85 0 29.85-34.55ZM45.95-34.55L52.4-34.55 43-18.9 53.15 0 46.15 0 36.45-18.45 45.95-34.55Z" fill="#074e99" data-fill-palette-color="primary"></path><path d="M80.05-18.3Q83.4-17.55 85.32-15.63 87.25-13.7 87.25-9.9L87.25-9.9Q87.25-4.9 83.87-2.45 80.5 0 74.7 0L74.7 0 66 0 66-34.55 73.55-34.55Q79.5-34.55 82.75-32.3 86-30.05 86-25.75L86-25.75Q86-22.85 84.37-20.95 82.75-19.05 80.05-18.3L80.05-18.3ZM74.2-29.85L72.35-29.85 72.35-20.3 74.5-20.3Q79.55-20.3 79.55-25.2L79.55-25.2Q79.55-27.65 78.27-28.75 77-29.85 74.2-29.85L74.2-29.85ZM74.75-4.8Q77.65-4.8 79.15-6.03 80.65-7.25 80.65-10.15L80.65-10.15Q80.65-13.05 79.25-14.43 77.85-15.8 74.9-15.8L74.9-15.8 72.35-15.8 72.35-4.8 74.75-4.8ZM113.35 0L106.9 0 105.2-8.1 96.3-8.1 94.65 0 88.3 0 97-34.55 104.7-34.55 113.35 0ZM100.75-29.7L97.3-12.9 104.25-12.9 100.75-29.7ZM115.29-34.55L134.09-34.55 134.09-29.6 120.89-5.2 134.24-5.2 133.64 0 113.99 0 113.99-4.9 127.24-29.45 115.29-29.45 115.29-34.55ZM137.29-34.55L156.09-34.55 156.09-29.6 142.89-5.2 156.24-5.2 155.64 0 135.99 0 135.99-4.9 149.24-29.45 137.29-29.45 137.29-34.55ZM182.19 0L175.74 0 174.04-8.1 165.14-8.1 163.49 0 157.14 0 165.84-34.55 173.54-34.55 182.19 0ZM169.59-29.7L166.14-12.9 173.09-12.9 169.59-29.7ZM207.43 0L200.59 0 194.49-13.95 193.89-13.95 191.43-13.95 191.43 0 185.09 0 185.09-34.55 193.24-34.55Q205.74-34.55 205.74-24.4L205.74-24.4Q205.74-21.25 204.34-18.82 202.93-16.4 200.14-15.15L200.14-15.15 207.43 0ZM193.53-18.55Q196.49-18.55 197.81-19.95 199.14-21.35 199.14-24.4L199.14-24.4Q199.14-27.25 197.76-28.58 196.39-29.9 193.24-29.9L193.24-29.9 191.43-29.9 191.43-18.55 193.53-18.55Z" fill="#000000" data-fill-palette-color="secondary"></path></g></svg></g></svg></g><g transform="matrix(1,0,0,1,0,84.2300609876833)"><svg viewBox="0 0 375.74399999999997 52.026951121675836" height="52.026951121675836" width="375.74399999999997"><g transform="matrix(1,0,0,1,0,0)"><svg width="375.74399999999997" viewBox="0.8 -36.8 336.51 46.599999999999994" height="52.026951121675836" data-palette-color="#000000"><path d="M18.4-34.05L19.55-34.05 10.85-13.5 10.85 0 9.7 0 9.7-13.5 0.8-34.05 2.05-34.05 10.3-14.6 18.4-34.05ZM31.95-26.45Q36-26.45 38.22-23.13 40.45-19.8 40.45-13.1L40.45-13.1Q40.45-6.35 38.17-2.93 35.9 0.5 31.85 0.5L31.85 0.5Q27.8 0.5 25.57-2.93 23.35-6.35 23.35-12.95L23.35-12.95Q23.35-19.65 25.65-23.05 27.95-26.45 31.95-26.45L31.95-26.45ZM31.95-25.45Q28.45-25.45 26.45-22.35 24.45-19.25 24.45-12.95L24.45-12.95Q24.45-6.75 26.37-3.65 28.3-0.55 31.85-0.55L31.85-0.55Q35.45-0.55 37.4-3.65 39.35-6.75 39.35-13.1L39.35-13.1Q39.35-19.35 37.42-22.4 35.5-25.45 31.95-25.45L31.95-25.45ZM62.3-25.95L62.3 0 61.3 0 61.25-5.1Q60.05-2.6 58.25-1.05 56.45 0.5 54.05 0.5L54.05 0.5Q51.2 0.5 49.57-1.43 47.95-3.35 47.95-6.75L47.95-6.75 47.95-25.95 49.05-25.95 49.05-6.8Q49.05-3.75 50.37-2.15 51.7-0.55 54.05-0.55L54.05-0.55Q56.4-0.55 58.1-2.13 59.8-3.7 61.2-6.65L61.2-6.65 61.2-25.95 62.3-25.95ZM79.24-26.45Q80.24-26.45 81.24-26.15L81.24-26.15 81.04-25.25Q80.14-25.5 79.24-25.5L79.24-25.5Q76.89-25.5 75.42-23.58 73.94-21.65 72.94-17.55L72.94-17.55 72.94 0 71.84 0 71.84-25.95 72.79-25.95 72.84-20Q73.79-23.35 75.32-24.9 76.84-26.45 79.24-26.45L79.24-26.45ZM116.24-34.05L116.24 0 114.79 0 99.99-32.75Q100.14-27.65 100.14-23.85L100.14-23.85 100.14 0 99.04 0 99.04-34.05 100.49-34.05 115.29-1.3Q115.29-2 115.24-2.4L115.24-2.4Q115.14-6.4 115.14-10.25L115.14-10.25 115.14-34.05 116.24-34.05ZM140.24-14.2Q140.24-13.4 140.14-12.3L140.14-12.3 125.29-12.3Q125.44-6.35 127.44-3.45 129.44-0.55 132.74-0.55L132.74-0.55Q134.54-0.55 135.89-1.2 137.24-1.85 138.64-3.25L138.64-3.25 139.34-2.55Q137.84-1.05 136.29-0.28 134.74 0.5 132.79 0.5L132.79 0.5Q128.79 0.5 126.49-2.9 124.19-6.3 124.19-12.75L124.19-12.75Q124.19-19.4 126.41-22.93 128.64-26.45 132.49-26.45L132.49-26.45Q136.34-26.45 138.29-23.25 140.24-20.05 140.24-14.2L140.24-14.2ZM139.09-13.25Q139.14-13.65 139.14-14.6L139.14-14.6Q139.14-19.75 137.49-22.6 135.84-25.45 132.49-25.45L132.49-25.45Q129.29-25.45 127.31-22.43 125.34-19.4 125.29-13.25L125.29-13.25 139.09-13.25ZM155.58-26.45Q159.28-26.45 161.23-23.18 163.18-19.9 163.18-13.2L163.18-13.2Q163.18-6.5 161.13-3 159.08 0.5 155.33 0.5L155.33 0.5Q153.23 0.5 151.58-0.68 149.93-1.85 148.78-3.8L148.78-3.8 148.78 9.6 147.68 9.8 147.68-25.95 148.63-25.95 148.73-21.9Q151.48-26.45 155.58-26.45L155.58-26.45ZM155.28-0.55Q158.53-0.55 160.26-3.73 161.98-6.9 161.98-13.2L161.98-13.2Q161.98-25.45 155.58-25.45L155.58-25.45Q153.43-25.45 151.83-24.18 150.23-22.9 148.78-20.5L148.78-20.5 148.78-5.3Q151.53-0.55 155.28-0.55L155.28-0.55ZM183.03-4.8Q183.03-2.75 183.46-1.75 183.88-0.75 184.93-0.3L184.93-0.3 184.68 0.5Q183.33 0 182.71-1.1 182.08-2.2 182.03-4.3L182.03-4.3Q180.83-1.9 179.21-0.7 177.58 0.5 175.28 0.5L175.28 0.5Q172.23 0.5 170.48-1.63 168.73-3.75 168.73-7.2L168.73-7.2Q168.73-11.15 171.08-13.28 173.43-15.4 177.63-15.4L177.63-15.4 181.93-15.4 181.93-18.85Q181.93-22.1 180.71-23.78 179.48-25.45 176.73-25.45L176.73-25.45Q173.93-25.45 170.68-23.9L170.68-23.9 170.28-24.75Q173.58-26.45 176.78-26.45L176.78-26.45Q183.03-26.45 183.03-18.95L183.03-18.95 183.03-4.8ZM175.28-0.55Q179.78-0.55 181.93-6L181.93-6 181.93-14.4 177.73-14.4Q173.88-14.4 171.91-12.58 169.93-10.75 169.93-7.2L169.93-7.2Q169.93-4.05 171.36-2.3 172.78-0.55 175.28-0.55L175.28-0.55ZM195.38 0.5Q193.98 0.5 193.15-0.43 192.33-1.35 192.33-3.05L192.33-3.05 192.33-36.65 193.43-36.8 193.43-3.05Q193.43-0.5 195.48-0.5L195.48-0.5Q196.18-0.5 197.03-0.85L197.03-0.85 197.38 0Q196.28 0.5 195.38 0.5L195.38 0.5ZM203.93-25.95L205.03-25.95 205.03 0 203.93 0 203.93-25.95ZM204.48-36.2Q204.88-36.2 205.15-35.9 205.43-35.6 205.43-35.2L205.43-35.2Q205.43-34.8 205.15-34.52 204.88-34.25 204.48-34.25L204.48-34.25Q204.03-34.25 203.75-34.52 203.48-34.8 203.48-35.2L203.48-35.2Q203.48-35.6 203.75-35.9 204.03-36.2 204.48-36.2L204.48-36.2ZM235.87-18.05Q239.37-17.75 241.42-15.58 243.47-13.4 243.47-9.2L243.47-9.2Q243.47-4.65 240.87-2.33 238.27 0 233.57 0L233.57 0 226.82 0 226.82-34.05 232.17-34.05Q236.97-34.05 239.52-31.88 242.07-29.7 242.07-25.65L242.07-25.65Q242.07-22.5 240.47-20.55 238.87-18.6 235.87-18.05L235.87-18.05ZM232.37-33L227.92-33 227.92-18.5 233.72-18.5Q237.12-18.5 239-20.48 240.87-22.45 240.87-25.6L240.87-25.6Q240.87-29.2 238.72-31.1 236.57-33 232.37-33L232.37-33ZM233.62-1.05Q237.77-1.05 240.05-3.05 242.32-5.05 242.32-9.2L242.32-9.2Q242.32-13.3 240.15-15.4 237.97-17.5 233.92-17.5L233.92-17.5 227.92-17.5 227.92-1.05 233.62-1.05ZM262.87-4.8Q262.87-2.75 263.29-1.75 263.72-0.75 264.77-0.3L264.77-0.3 264.52 0.5Q263.17 0 262.54-1.1 261.92-2.2 261.87-4.3L261.87-4.3Q260.67-1.9 259.04-0.7 257.42 0.5 255.12 0.5L255.12 0.5Q252.07 0.5 250.32-1.63 248.57-3.75 248.57-7.2L248.57-7.2Q248.57-11.15 250.92-13.28 253.27-15.4 257.47-15.4L257.47-15.4 261.77-15.4 261.77-18.85Q261.77-22.1 260.54-23.78 259.32-25.45 256.57-25.45L256.57-25.45Q253.77-25.45 250.52-23.9L250.52-23.9 250.12-24.75Q253.42-26.45 256.62-26.45L256.62-26.45Q262.87-26.45 262.87-18.95L262.87-18.95 262.87-4.8ZM255.12-0.55Q259.62-0.55 261.77-6L261.77-6 261.77-14.4 257.57-14.4Q253.72-14.4 251.74-12.58 249.77-10.75 249.77-7.2L249.77-7.2Q249.77-4.05 251.19-2.3 252.62-0.55 255.12-0.55L255.12-0.55ZM269.97-25.95L283.02-25.95 283.02-25.05 270.12-1.05 282.77-1.05 282.67 0 268.87 0 268.87-0.9 281.82-24.95 269.97-24.95 269.97-25.95ZM286.86-25.95L299.91-25.95 299.91-25.05 287.01-1.05 299.66-1.05 299.56 0 285.76 0 285.76-0.9 298.71-24.95 286.86-24.95 286.86-25.95ZM318.36-4.8Q318.36-2.75 318.79-1.75 319.21-0.75 320.26-0.3L320.26-0.3 320.01 0.5Q318.66 0 318.04-1.1 317.41-2.2 317.36-4.3L317.36-4.3Q316.16-1.9 314.54-0.7 312.91 0.5 310.61 0.5L310.61 0.5Q307.56 0.5 305.81-1.63 304.06-3.75 304.06-7.2L304.06-7.2Q304.06-11.15 306.41-13.28 308.76-15.4 312.96-15.4L312.96-15.4 317.26-15.4 317.26-18.85Q317.26-22.1 316.04-23.78 314.81-25.45 312.06-25.45L312.06-25.45Q309.26-25.45 306.01-23.9L306.01-23.9 305.61-24.75Q308.91-26.45 312.11-26.45L312.11-26.45Q318.36-26.45 318.36-18.95L318.36-18.95 318.36-4.8ZM310.61-0.55Q315.11-0.55 317.26-6L317.26-6 317.26-14.4 313.06-14.4Q309.21-14.4 307.24-12.58 305.26-10.75 305.26-7.2L305.26-7.2Q305.26-4.05 306.69-2.3 308.11-0.55 310.61-0.55L310.61-0.55ZM335.31-26.45Q336.31-26.45 337.31-26.15L337.31-26.15 337.11-25.25Q336.21-25.5 335.31-25.5L335.31-25.5Q332.96-25.5 331.48-23.58 330.01-21.65 329.01-17.55L329.01-17.55 329.01 0 327.91 0 327.91-25.95 328.86-25.95 328.91-20Q329.86-23.35 331.38-24.9 332.91-26.45 335.31-26.45L335.31-26.45Z" opacity="1" transform="matrix(1,0,0,1,0,0)" fill="#000000" class="slogan-text-1" data-fill-palette-color="secondary" id="text-1"></path></svg></g></svg></g></svg></g></svg></g><g><svg viewBox="0 0 150.5133344141203 188.30719073513436" height="188.30719073513436" width="150.5133344141203"><g><svg xmlns="http://www.w3.org/2000/svg" xmlns:xlink="http://www.w3.org/1999/xlink" version="1.1" x="0" y="0" viewBox="14.195 5.205 71.6090000467789 89.59" enable-background="new 0 0 100 100" xml:space="preserve" height="188.30719073513436" width="150.5133344141203" class="icon-icon-0" data-fill-palette-color="accent" id="icon-0"><g fill="#bd0404" data-fill-palette-color="accent"><path d="M50 5.205C30.225 5.205 14.195 21.235 14.195 41.008 14.195 50.897 18.592 59.479 24.682 66.327L50 94.795 75.318 66.327C81.406 59.478 85.804 50.896 85.804 41.01 85.805 21.235 69.773 5.205 50 5.205M71.662 62.67C65.877 68.457 58.184 71.645 50 71.645S34.123 68.457 28.338 62.67C22.552 56.883 19.365 49.191 19.365 41.008 19.365 24.118 33.107 10.374 50 10.374S80.637 24.118 80.637 41.008C80.637 49.191 77.448 56.886 71.662 62.67" fill="#bd0404" data-fill-palette-color="accent"></path><path d="M38.175 32.438A7 7 0 0 0 38.114 31.538 6.63 6.63 0 0 1 35.755 35.768L34.75 35.51 36.021 34.187 34.199 34.403 34.906 32.71 33.285 33.569 33.332 31.736 32.132 33.122 31.514 31.395 30.896 33.122 29.695 31.736 29.742 33.569 28.122 32.71 28.828 34.403 27.007 34.187 28.276 35.51 27.296 35.763A6.64 6.64 0 0 1 24.943 31.537 6.648 6.648 0 1 0 38.175 32.438" fill="#bd0404" data-fill-palette-color="accent"></path><path d="M49.999 11.8C33.894 11.8 20.791 24.903 20.791 41.008 20.791 48.809 23.828 56.144 29.345 61.661 34.86 67.179 42.195 70.218 49.999 70.218S65.138 67.179 70.652 61.661C76.17 56.147 79.208 48.811 79.208 41.008 79.207 24.902 66.104 11.8 49.999 11.8M25.787 55.502L28.363 55.281 28.131 58.013 30.379 56.443 31.542 58.924 32.704 56.443 34.952 58.013 34.719 55.281 37.45 55.515 35.882 53.267 38.364 52.103 35.882 50.941 37.45 48.692 34.719 48.926 34.952 46.197 32.704 47.764 31.542 45.282 30.379 47.764 28.131 46.197 28.363 48.926 25.633 48.692 27.201 50.941 24.719 52.103 27.201 53.267 25.721 55.388C23.159 51.08 21.791 46.149 21.791 41.007 21.791 33.47 24.769 26.619 29.602 21.554L61.53 41.458H35.538L60.129 65.547H36.077A28.3 28.3 0 0 1 30.052 60.953 28.3 28.3 0 0 1 25.787 55.502" fill="#bd0404" data-fill-palette-color="accent"></path></g></svg></g></svg></g></svg></g><defs></defs></svg><rect width="395.52" height="132.49701499059026" fill="none" stroke="none" visibility="hidden"></rect></g></svg></g></svg>